<svg xmlns="http://www.w3.org/2000/svg">

    <symbol id="github" viewBox="0 0 16 16">
        <path d="M8 0C3.58 0 0 3.58 0 8c0 3.54 2.29 6.53 5.47 7.59.4.07.55-.17.55-.38 0-.19-.01-.82-.01-1.49-2.01.37-2.53-.49-2.69-.94-.09-.23-.48-.94-.82-1.13-.28-.15-.68-.52-.01-.53.63-.01 1.08.58 1.23.82.72 1.21 1.87.87 2.33.66.07-.52.28-.87.51-1.07-1.78-.2-3.64-.89-3.64-3.95 0-.87.31-1.59.82-2.15-.08-.2-.36-1.02.08-2.12 0 0 .67-.21 2.2.82.64-.18 1.32-.27 2-.27s1.36.09 2 .27c1.53-1.04 2.2-.82 2.2-.82.44 1.1.16 1.92.08 2.12.51.56.82 1.27.82 2.15 0 3.07-1.87 3.75-3.65 3.95.29.25.54.73.54 1.48 0 1.07-.01 1.93-.01 2.2 0 .21.15.46.55.38A8.01 8.01 0 0 0 16 8c0-4.42-3.58-8-8-8"/>
    </symbol>

    <symbol id="x-twitter" viewBox="0 0 16 16">
        <path d="M12.6.75h2.454l-5.36 6.142L16 15.25h-4.937l-3.867-5.07-4.425 5.07H.316l5.733-6.57L0 .75h5.063l3.495 4.633L12.601.75Zm-.86 13.028h1.36L4.323 2.145H2.865z"/>
    </symbol>

    <symbol id="telegram" viewBox="0 0 16 16">
        <path d="M16 8A8 8 0 1 1 0 8a8 8 0 0 1 16 0M8.287 5.906q-1.168.486-4.666 2.01-.567.225-.595.442c-.03.243.275.339.69.47l.175.055c.408.133.958.288 1.243.294q.39.01.868-.32 3.269-2.206 3.374-2.23c.05-.012.12-.026.166.016s.042.12.037.141c-.03.129-1.227 1.241-1.846 1.817-.193.18-.33.307-.358.336a8 8 0 0 1-.188.186c-.38.366-.664.64.015 1.088.327.216.589.393.85.571.284.194.568.387.936.629q.14.092.27.187c.331.236.63.448.997.414.214-.02.435-.22.547-.82.265-1.417.786-4.486.906-5.751a1.4 1.4 0 0 0-.013-.315.34.34 0 0 0-.114-.217.53.53 0 0 0-.31-.093c-.3.005-.763.166-2.984 1.09"/>
    </symbol>

    <symbol id="fire" viewBox="0 0 16 16">
        <path d="M8 16c3.314 0 6-2 6-5.5 0-1.5-.5-4-2.5-6 .25 1.5-1.25 2-1.25 2C11 4 9 .5 6 0c.357 2 .5 4-2 6-1.25 1-2 2.729-2 4.5C2 14 4.686 16 8 16Zm0-1c-1.657 0-3-1-3-2.75 0-.75.25-2 1.25-3C6.125 10 7 10.5 7 10.5c-.375-1.25.5-3.25 2-3.5-.179 1-.25 2 1 3 .625.5 1 1.364 1 2.25C11 14 9.657 15 8 15Z"/>
    </symbol>

    <symbol id="list" viewBox="0 0 16 16">
        <path d="M2.5 12a.5.5 0 0 1 .5-.5h10a.5.5 0 0 1 0 1H3a.5.5 0 0 1-.5-.5m0-4a.5.5 0 0 1 .5-.5h10a.5.5 0 0 1 0 1H3a.5.5 0 0 1-.5-.5m0-4a.5.5 0 0 1 .5-.5h10a.5.5 0 0 1 0 1H3a.5.5 0 0 1-.5-.5"/>
    </symbol>

    <symbol id="chevron-down" viewBox="0 0 16 16">
        <path d="M1.646 4.646a.5.5 0 0 1 .708 0L8 10.293l5.646-5.647a.5.5 0 0 1 .708.708l-6 6a.5.5 0 0 1-.708 0l-6-6a.5.5 0 0 1 0-.708"/>
    </symbol>

    <symbol id="person" viewBox="0 0 16 16">
        <path d="M8 8a3 3 0 1 0 0-6 3 3 0 0 0 0 6m2-3a2 2 0 1 1-4 0 2 2 0 0 1 4 0m4 8c0 1-1 1-1 1H3s-1 0-1-1 1-4 6-4 6 3 6 4m-1-.004c-.001-.246-.154-.986-.832-1.664C11.516 10.68 10.289 10 8 10s-3.516.68-4.168 1.332c-.678.678-.83 1.418-.832 1.664z"/>
    </symbol>

    <symbol id="apple" viewBox="0 0 16 16">
        <path
            d="M11.182.008C11.148-.03 9.923.023 8.857 1.18c-1.066 1.156-.902 2.482-.878 2.516.024.034 1.52.087 2.475-1.258.955-1.345.762-2.391.728-2.43Zm3.314 11.733c-.048-.096-2.325-1.234-2.113-3.422.212-2.189 1.675-2.789 1.698-2.854.023-.065-.597-.79-1.254-1.157a3.692 3.692 0 0 0-1.563-.434c-.108-.003-.483-.095-1.254.116-.508.139-1.653.589-1.968.607-.316.018-1.256-.522-2.267-.665-.647-.125-1.333.131-1.824.328-.49.196-1.422.754-2.074 2.237-.652 1.482-.311 3.83-.067 4.56.244.729.625 1.924 1.273 2.796.576.984 1.34 1.667 1.659 1.899.319.232 1.219.386 1.843.067.502-.308 1.408-.485 1.766-.472.357.013 1.061.154 1.782.539.571.197 1.111.115 1.652-.105.541-.221 1.324-1.059 2.238-2.758.347-.79.505-1.217.473-1.282Z"/>
        <path
            d="M11.182.008C11.148-.03 9.923.023 8.857 1.18c-1.066 1.156-.902 2.482-.878 2.516.024.034 1.52.087 2.475-1.258.955-1.345.762-2.391.728-2.43Zm3.314 11.733c-.048-.096-2.325-1.234-2.113-3.422.212-2.189 1.675-2.789 1.698-2.854.023-.065-.597-.79-1.254-1.157a3.692 3.692 0 0 0-1.563-.434c-.108-.003-.483-.095-1.254.116-.508.139-1.653.589-1.968.607-.316.018-1.256-.522-2.267-.665-.647-.125-1.333.131-1.824.328-.49.196-1.422.754-2.074 2.237-.652 1.482-.311 3.83-.067 4.56.244.729.625 1.924 1.273 2.796.576.984 1.34 1.667 1.659 1.899.319.232 1.219.386 1.843.067.502-.308 1.408-.485 1.766-.472.357.013 1.061.154 1.782.539.571.197 1.111.115 1.652-.105.541-.221 1.324-1.059 2.238-2.758.347-.79.505-1.217.473-1.282Z"/>
    </symbol>

    <symbol id="play" viewBox="0 0 16 16">
        <path d="m11.596 8.697-6.363 3.692c-.54.313-1.233-.066-1.233-.697V4.308c0-.63.692-1.01 1.233-.696l6.363 3.692a.802.802 0 0 1 0 1.393z"/>
    </symbol>

    <symbol id="card" viewBox="0 0 16 16">
        <path d="M0 4a2 2 0 0 1 2-2h12a2 2 0 0 1 2 2v5H0V4zm11.5 1a.5.5 0 0 0-.5.5v1a.5.5 0 0 0 .5.5h2a.5.5 0 0 0 .5-.5v-1a.5.5 0 0 0-.5-.5h-2zM0 11v1a2 2 0 0 0 2 2h12a2 2 0 0 0 2-2v-1H0z"/>
    </symbol>

    <symbol id="journal" viewBox="0 0 16 16">
        <path fill-rule="evenodd" d="M6 1h6v7a.5.5 0 0 1-.757.429L9 7.083 6.757 8.43A.5.5 0 0 1 6 8V1z"/>
        <path d="M3 0h10a2 2 0 0 1 2 2v12a2 2 0 0 1-2 2H3a2 2 0 0 1-2-2v-1h1v1a1 1 0 0 0 1 1h10a1 1 0 0 0 1-1V2a1 1 0 0 0-1-1H3a1 1 0 0 0-1 1v1H1V2a2 2 0 0 1 2-2z"/>
        <path d="M1 5v-.5a.5.5 0 0 1 1 0V5h.5a.5.5 0 0 1 0 1h-2a.5.5 0 0 1 0-1H1zm0 3v-.5a.5.5 0 0 1 1 0V8h.5a.5.5 0 0 1 0 1h-2a.5.5 0 0 1 0-1H1zm0 3v-.5a.5.5 0 0 1 1 0v.5h.5a.5.5 0 0 1 0 1h-2a.5.5 0 0 1 0-1H1z"/>
    </symbol>

    <symbol id="option" viewBox="0 0 16 16">
        <path d="M1 2.5a.5.5 0 0 1 .5-.5h3.797a.5.5 0 0 1 .439.26L11 13h3.5a.5.5 0 0 1 0 1h-3.797a.5.5 0 0 1-.439-.26L5 3H1.5a.5.5 0 0 1-.5-.5zm10 0a.5.5 0 0 1 .5-.5h3a.5.5 0 0 1 0 1h-3a.5.5 0 0 1-.5-.5z"/>
    </symbol>

    <symbol id="star" viewBox="0 0 16 16">
        <path d="M3.612 15.443c-.386.198-.824-.149-.746-.592l.83-4.73L.173 6.765c-.329-.314-.158-.888.283-.95l4.898-.696L7.538.792c.197-.39.73-.39.927 0l2.184 4.327 4.898.696c.441.062.612.636.282.95l-3.522 3.356.83 4.73c.078.443-.36.79-.746.592L8 13.187l-4.389 2.256z"/>
    </symbol>

    <symbol id="google-play" viewBox="0 0 16 16">
        <path d="M14.222 9.374c1.037-.61 1.037-2.137 0-2.748L11.528 5.04 8.32 8l3.207 2.96 2.694-1.586Zm-3.595 2.116L7.583 8.68 1.03 14.73c.201 1.029 1.36 1.61 2.303 1.055l7.294-4.295ZM1 13.396V2.603L6.846 8 1 13.396ZM1.03 1.27l6.553 6.05 3.044-2.81L3.333.215C2.39-.341 1.231.24 1.03 1.27Z"/>
    </symbol>

    <symbol id="arrow-right" viewBox="0 0 16 16">
        <path d="M1 8a.5.5 0 0 1 .5-.5h11.793l-3.147-3.146a.5.5 0 0 1 .708-.708l4 4a.5.5 0 0 1 0 .708l-4 4a.5.5 0 0 1-.708-.708L13.293 8.5H1.5A.5.5 0 0 1 1 8"/>
    </symbol>

    <symbol id="chevron-down" viewBox="0 0 16 16">
        <path d="M1.646 4.646a.5.5 0 0 1 .708 0L8 10.293l5.646-5.647a.5.5 0 0 1 .708.708l-6 6a.5.5 0 0 1-.708 0l-6-6a.5.5 0 0 1 0-.708"/>
    </symbol>

</svg>


                  <svg width="16" height="16" class="header__svg_tablet">
                    <use href="./styles/sprite.svg#chevron-down" />
                  </svg>